Coordinates
version=1
nRows=16
nColumns=40
inDegrees=yes

Units are S.I. units (second, meters, Newtons, ...)
Angles are in degrees.

endheader
time	pelvis_tilt	pelvis_list	pelvis_rotation	pelvis_tx	pelvis_ty	pelvis_tz	hip_flexion_r	hip_adduction_r	hip_rotation_r	knee_angle_r	knee_angle_r_beta	ankle_angle_r	subtalar_angle_r	mtp_angle_r	hip_flexion_l	hip_adduction_l	hip_rotation_l	knee_angle_l	knee_angle_l_beta	ankle_angle_l	subtalar_angle_l	mtp_angle_l	lumbar_extension	lumbar_bending	lumbar_rotation	arm_flex_r	arm_add_r	arm_rot_r	elbow_flex_r	pro_sup_r	wrist_flex_r	wrist_dev_r	arm_flex_l	arm_add_l	arm_rot_l	elbow_flex_l	pro_sup_l	wrist_flex_l	wrist_dev_l
     47.31000000	     -4.40267867	     -4.97124479	      9.31079018	      0.91283633	      0.91748999	      0.54991590	      4.84224949	      5.86261752	    -17.12790423	     18.30642923	     18.30642923	     19.62970794	     -6.50972444	      0.38199112	     31.02106357	     -8.03507129	      3.58548353	     21.92987124	     21.92987124	      5.31239250	     -8.11373293	      7.76117904	     -9.68372347	      3.41120691	      2.62721348	     52.39360186	    -22.04628387	     -7.90606527	     67.98606429	     44.80147356	      0.00000000	      0.00000000	    -21.58267850	     -8.54071035	     11.98385686	     30.16518701	     44.02413347	      0.00000000	      0.00000000
     47.32957143	     -4.45999309	     -5.15500868	      9.45088128	      0.91214760	      0.91632906	      0.54683109	      4.56391768	      5.86009436	    -17.33830020	     18.38885655	     18.38885655	     19.90896273	     -6.28940107	      0.14905067	     30.81271004	     -8.03909023	      3.30325097	     21.77507794	     21.77507794	      3.66665784	     -8.29234166	      4.13411885	     -9.71556970	      3.50113665	      2.32613762	     54.09314124	    -21.51822113	     -7.33412846	     67.85853158	     44.83962188	      0.00000000	      0.00000000	    -21.57179249	     -8.47922760	     13.06806560	     30.17806023	     43.98210426	      0.00000000	      0.00000000
     47.34914286	     -4.58422804	     -5.28162723	      9.56365575	      0.91153476	      0.91525978	      0.54356996	      4.35964906	      5.80155740	    -17.34637692	     18.48785854	     18.48785854	     20.12132742	     -6.37448064	      0.07397764	     30.88983081	     -7.92963146	      3.25597201	     22.25778645	     22.25778645	      3.43270236	     -8.53558653	      3.99580254	     -9.70100232	      3.47286520	      2.48765577	     55.11027238	    -21.50293156	     -7.38636964	     68.19986208	     44.83779088	      0.00000000	      0.00000000	    -21.15806400	     -8.47277634	     13.11583447	     30.27848494	     43.99043143	      0.00000000	      0.00000000
     47.36871429	     -4.62970873	     -5.42980149	      9.66450023	      0.91124087	      0.91427113	      0.54009617	      4.10739819	      5.74848079	    -17.37845405	     18.69801089	     18.69801089	     20.36298135	     -6.45652009	     -0.03288581	     30.99797457	     -7.85037016	      3.33737642	     23.06604202	     23.06604202	      3.30946914	     -8.95559531	      3.65445960	     -9.71937325	      3.49113720	      2.54007092	     55.87932116	    -21.35126187	     -7.41461951	     68.47986336	     44.83701661	      0.00000000	      0.00000000	    -20.69082550	     -8.45472533	     13.20098656	     30.30156928	     43.99751356	      0.00000000	      0.00000000
     47.38828571	     -4.74568803	     -5.44589798	      9.75920357	      0.91121149	      0.91361836	      0.53626673	      3.80128003	      5.54343644	    -17.38156591	     18.73297088	     18.73297088	     20.49378516	     -6.51488914	     -0.06145122	     31.00436777	     -7.62058790	      3.35870498	     23.69259942	     23.69259942	      3.34359013	     -9.25302811	      3.44104423	     -9.61255269	      3.38421977	      2.54133775	     56.21980583	    -21.16624064	     -7.38456943	     68.59617894	     44.83495623	      0.00000000	      0.00000000	    -20.05251599	     -8.49477422	     13.21501749	     30.43859493	     44.00959336	      0.00000000	      0.00000000
     47.40785714	     -4.70702253	     -5.58727397	      9.77540635	      0.91144583	      0.91307241	      0.53238757	      3.40157683	      5.45612389	    -17.38126050	     18.92394783	     18.92394783	     20.59974226	     -6.45525510	     -0.13780402	     31.13328764	     -7.53452105	      3.61350959	     24.86458995	     24.86458995	      3.53232463	     -9.99375706	      3.05960634	     -9.69606374	      3.41728608	      2.57336894	     56.63931303	    -21.00987251	     -7.41495340	     68.68585655	     44.83834101	      0.00000000	      0.00000000	    -19.44560368	     -8.58169817	     13.26161853	     30.45231265	     44.02219117	      0.00000000	      0.00000000
     47.42742857	     -4.75577693	     -5.71170355	      9.76913000	      0.91187926	      0.91275435	      0.52820803	      3.00407968	      5.32135164	    -17.43816156	     18.96212798	     18.96212798	     20.62812791	     -6.27172905	     -0.19941661	     31.21319991	     -7.37058305	      3.97355054	     25.82494712	     25.82494712	      3.79429332	    -10.75320462	      2.80275302	     -9.61679639	      3.47808651	      2.63508667	     56.77543644	    -20.88548201	     -7.46142382	     68.58783647	     44.84894402	      0.00000000	      0.00000000	    -18.76198300	     -8.66456962	     13.31277948	     30.47410947	     44.03960133	      0.00000000	      0.00000000
     47.44700000	     -4.80457075	     -5.78656041	      9.71050698	      0.91253668	      0.91280149	      0.52383038	      2.50892635	      5.11689640	    -17.55647084	     18.86433388	     18.86433388	     20.54596211	     -5.87140928	     -0.27411036	     31.16400959	     -7.14110805	      4.33468129	     26.62243464	     26.62243464	      4.16996901	    -11.59660295	      2.78650208	     -9.51545248	      3.49369797	      2.78304262	     56.72714954	    -20.85245241	     -7.55194604	     68.25528235	     44.87105743	      0.00000000	      0.00000000	    -17.96172738	     -8.81212757	     13.34777037	     30.55907543	     44.06843230	      0.00000000	      0.00000000
     47.46657143	     -4.84158861	     -5.78583462	      9.55380817	      0.91341962	      0.91313387	      0.51938761	      1.98085453	      4.82881287	    -17.53164318	     18.76831255	     18.76831255	     20.40529532	     -5.54141050	     -0.28888894	     30.97815525	     -6.91144327	      4.46743919	     27.28665087	     27.28665087	      4.65561954	    -12.17817218	      2.74006922	     -9.40993389	      3.41938377	      2.90783919	     56.47137858	    -20.72588822	     -7.54386156	     67.94443331	     44.88401407	      0.00000000	      0.00000000	    -17.25188802	     -9.03703648	     13.30472347	     30.77366253	     44.09568393	      0.00000000	      0.00000000
     47.48614286	     -4.92818745	     -5.81478101	      9.34211189	      0.91433454	      0.91366270	      0.51482630	      1.49790164	      4.54588250	    -17.52682716	     18.64770631	     18.64770631	     20.17968069	     -5.14369599	     -0.28962454	     30.75025444	     -6.70946100	      4.52287152	     27.77178354	     27.77178354	      5.17300922	    -12.69394286	      2.75165062	     -9.26488064	      3.44305727	      3.03928933	     56.14750391	    -20.64808459	     -7.54193236	     67.55082343	     44.89882631	      0.00000000	      0.00000000	    -16.53671867	     -9.26647690	     13.23056799	     31.07939059	     44.12455595	      0.00000000	      0.00000000
     47.50571429	     -4.98020980	     -5.78512089	      9.08233836	      0.91532952	      0.91454090	      0.51004021	      0.89059166	      4.09107726	    -18.00407078	     18.41568577	     18.41568577	     19.84314615	     -3.81647710	     -0.79786122	     30.38840639	     -6.40454673	      4.71091859	     28.17681752	     28.17681752	      6.06259400	    -13.27259991	      3.96999161	     -9.12410767	      3.39645611	      3.45752055	     55.90002610	    -20.86197057	     -7.86262338	     66.04366385	     44.97808084	      0.00000000	      0.00000000	    -15.87853443	     -9.65011099	     13.04512726	     32.04296493	     44.20814425	      0.00000000	      0.00000000
     47.52528571	     -5.12408533	     -5.81527256	      8.76940138	      0.91628640	      0.91530161	      0.50536246	      0.55779880	      3.76337804	    -17.85554115	     18.42770423	     18.42770423	     19.52047663	     -3.59145837	     -0.75699631	     30.05694680	     -6.25031625	      4.56898129	     28.39091847	     28.39091847	      6.60283440	    -13.53199650	      3.88607184	     -8.91226947	      3.50062986	      3.48449520	     55.42756386	    -20.54202298	     -7.76578634	     65.73327882	     44.98422478	      0.00000000	      0.00000000	    -15.17104396	     -9.89066049	     12.96033568	     32.36514689	     44.23416301	      0.00000000	      0.00000000
     47.54485714	     -5.16680992	     -5.72267597	      8.39328436	      0.91737495	      0.91657839	      0.50060822	      0.01431453	      3.25272624	    -18.03730332	     18.29944536	     18.29944536	     19.06350737	     -2.66844685	     -1.08389561	     29.41326114	     -6.03592462	      4.23613429	     28.33994684	     28.33994684	      7.32319369	    -13.59838843	      4.37252725	     -8.78706335	      3.40235722	      3.96367553	     54.87343017	    -20.89021243	     -8.07447583	     64.10828272	     45.05689318	      0.00000000	      0.00000000	    -14.54055570	    -10.34715836	     12.67813477	     33.42813729	     44.30327738	      0.00000000	      0.00000000
     47.56442857	     -5.34429500	     -5.84356854	      8.02204699	      0.91810531	      0.91755286	      0.49598408	     -0.14287336	      2.97221436	    -17.90210749	     18.46185527	     18.46185527	     18.58385166	     -2.44685442	     -1.03792235	     29.02652055	     -6.00084686	      4.01284961	     28.34282569	     28.34282569	      7.82055882	    -13.79397799	      4.29678037	     -8.61648367	      3.62249324	      3.83855551	     54.39389550	    -20.58485148	     -8.00589568	     63.79818700	     45.06333187	      0.00000000	      0.00000000	    -13.86219598	    -10.57555902	     12.59645917	     33.75227058	     44.32619118	      0.00000000	      0.00000000
     47.58400000	     -5.41526199	     -5.60917286	      7.59629821	      0.91888612	      0.91893208	      0.49119830	     -0.45917718	      2.18982395	    -18.20154085	     18.64645310	     18.64645310	     17.58755094	     -1.55822554	     -3.31008431	     28.32387486	     -5.69510787	      3.36116419	     28.17423156	     28.17423156	      8.92189315	    -13.33538060	      5.81625566	     -8.43983830	      3.42389181	      3.33020018	     54.79515807	    -19.21608437	     -9.05594017	     59.39243855	     45.28411530	      0.00000000	      0.00000000	    -14.31838155	    -11.34314841	     11.99386798	     36.98670961	     44.51640245	      0.00000000	      0.00000000
     47.60357143	     -5.55455432	     -5.53347466	      7.15647619	      0.91955995	      0.92036495	      0.48653146	     -0.55262146	      1.65235072	    -17.99050273	     19.00393533	     19.00393533	     17.01683683	     -1.37659385	     -3.47136071	     27.57087445	     -5.53134136	      2.78864104	     27.66453295	     27.66453295	      9.32025235	    -13.16364932	      5.79968653	     -8.27889787	      3.45431080	      3.45876817	     53.83483623	    -19.18940455	     -9.10299148	     58.50662893	     45.31506942	      0.00000000	      0.00000000	    -13.49937568	    -11.68974428	     11.76413059	     37.48741107	     44.56963928	      0.00000000	      0.00000000
